# xmcd
#
# Track frame offsets:
#	150
#	13407
#	25475
#	37881
#	52404
#	62829
#	74762
#	88669
#	103047
#	116082
#	129988
#	141854
#	154492
#	168935
#	183247
#	197475
#	213607
#
# Disc length: 3086 seconds
#
# Revision: 0
# Processed by: cddbd v1.5.2PL0 Copyright (c) Steve Scherf et al.
# Submitted via: EasyCDDAExtractor 15.3.0.1
#
DISCID=050c0c11
DTITLE=John Lee Hooker - Talking Blues
DYEAR=2011
DGENRE=Blues
TTITLE0=I  Need Lovin'
TTITLE1=Find Me a Woman
TTITLE2=I'm In the Mood
TTITLE3=Four Women in My Life
TTITLE4=Walkin' This Highway
TTITLE5=Strike Blues
TTITLE6=Three Long Years Ago
TTITLE7=Grinder Man
TTITLE8=Do My Baby Think of Me
TTITLE9=Alberta
TTITLE10=Crawling King Snake
TTITLE11=Hobo blues
TTITLE12=Sally Mae
TTITLE13=Henry's Swing Club
TTITLE14=Boogie Chillen
TTITLE15=My First Wife Left Me
TTITLE16=Wendesday Evening Blues
EXTD=
EXTT0=
EXTT1=
EXTT2=
EXTT3=
EXTT4=
EXTT5=
EXTT6=
EXTT7=
EXTT8=
EXTT9=
EXTT10=
EXTT11=
EXTT12=
EXTT13=
EXTT14=
EXTT15=
EXTT16=
PLAYORDER=
